<svg viewBox="0 0 22 21.75" xmlns="http://www.w3.org/2000/svg">
  <g transform="translate(1.64 1.1)">
    <path d="m7.24 8.68-4 1.06 4 1.06c-.08-.35-.13-.69-.13-1.06 0-.36.05-.73.13-1.06zm2.51-5.44-1.06 3.88c.34-.08.7-.13 1.06-.13.36 0 .7.05 1.03.13zm-1.04 9.11 1.03 3.88 1-3.84c-.32.07-.66.13-1 .13-.36 0-.7-.08-1.03-.16zm3.64-3.64c.07.33.16.68.16 1.03 0 .36-.08.7-.16 1.03l3.88-1.03z" stroke="#fff" stroke-linecap="square" stroke-width=".2"/>
    <path d="M9.74 7.68c-1.13 0-2.05.92-2.05 2.05s.92 2.05 2.05 2.05 2.05-.92 2.05-2.05-.92-2.05-2.05-2.05z" fill="none" stroke="#fff" stroke-width=".43"/>
    <text font-family="arial black" font-size="2" x="9" y="2.5">С</text>
    <text font-family="arial black" font-size="2" x="9" y="18.5">Ю</text>
    <text font-family="arial black" font-size="2" x="17" y="10.5">В</text>
    <text font-family="arial black" font-size="2" x="1.5" y="10.5">З</text>
  </g>
</svg>