<svg xmlns="http://www.w3.org/2000/svg" width="128" height="128" viewBox="0 0 128 128">
  <path fill="#7c3aed" d="M103.784 77.776H87.868L79.911 91.56l-5.306-9.188h-21.22l-5.306 9.188-7.957-13.783H24.206l-10.61 18.378 10.61 18.378h79.578l10.61-18.378z"/>
  <path fill="#f97316" d="M114.394 13.454H13.596L.333 36.426l10.61 18.378L.333 73.182l13.263 22.972 10.61-18.378h15.916l7.957 13.783 5.306-9.189h21.22l5.306 9.19 7.957-13.784h15.916l10.61 18.378 13.263-22.972-10.61-18.378 10.61-18.378z"/>
  <path fill="#fff" d="m42.774 82.37 5.305 9.19 5.306-9.19z"/>
  <path fill="#3b1578" d="M69.3 63.993H58.69l-5.305 9.189h21.22z"/>
  <path fill="#fff" d="m40.122 41.02-2.653 4.595h5.305zm42.441 0-2.652 4.595h5.305zm2.653 41.35h-10.61l5.305 9.19z"/>
  <path fill="#7c3aed" d="m50.732 50.21-7.958-13.784-2.652 4.595 2.652 4.594H37.47l-5.305 9.189H48.08zm58.357-27.567H98.48l13.263 22.972 5.305-9.189zM85.216 36.426l-2.653 4.595 2.653 4.594H79.91l-2.653 4.594 2.653 4.595h15.915zM29.51 22.643H18.9l-7.958 13.783 5.305 9.19z"/>
</svg>
